<svg width="40" height="40" viewBox="0 0 40 40" fill="none" xmlns="http://www.w3.org/2000/svg">
<path d="M20 28C18.7521 27.9953 17.6784 27.6959 16.7788 27.1018C15.884 26.5078 15.1947 25.6473 14.7111 24.5205C14.2322 23.3937 13.9952 22.0382 14.0001 20.454C14.0001 18.8746 14.2395 17.5285 14.7183 16.4158C15.202 15.3032 15.8912 14.4569 16.786 13.8769C17.6856 13.2923 18.757 13 20 13C21.243 13 22.3119 13.2923 23.2067 13.8769C24.1064 14.4616 24.798 15.3102 25.2817 16.4229C25.7653 17.5309 26.0048 18.8746 25.9999 20.454C25.9999 22.0429 25.7581 23.4008 25.2744 24.5276C24.7956 25.6544 24.1088 26.5149 23.214 27.1089C22.3192 27.703 21.2479 28 20 28ZM20 25.4611C20.8513 25.4611 21.5308 25.0438 22.0387 24.2093C22.5465 23.3748 22.798 22.1231 22.7932 20.454C22.7932 19.3555 22.6771 18.4408 22.445 17.71C22.2176 16.9793 21.8936 16.43 21.4728 16.0622C21.0568 15.6945 20.5659 15.5106 20 15.5106C19.1536 15.5106 18.4764 15.9232 17.9686 16.7482C17.4607 17.5733 17.2044 18.8086 17.1996 20.454C17.1996 21.5667 17.3132 22.4955 17.5405 23.2405C17.7727 23.9807 18.0992 24.537 18.52 24.9095C18.9408 25.2772 19.4341 25.4611 20 25.4611Z" fill="white"/>
</svg>
